<svg width="130" height="35" viewBox="0 0 130 35" fill="none" xmlns="http://www.w3.org/2000/svg">
<g clip-path="url(#clip0)">
<path d="M58.2636 18.7334L56.1947 13.2938C56.1114 13.0713 55.7868 13.0713 55.7024 13.2938L53.6335 18.7334C53.6187 18.7721 53.6137 18.8137 53.619 18.8546C53.6243 18.8956 53.6397 18.9346 53.6639 18.9685C53.6881 19.0024 53.7204 19.03 53.758 19.049C53.7956 19.068 53.8373 19.0779 53.8796 19.0777H58.0174C58.0598 19.0779 58.1015 19.068 58.1391 19.049C58.1767 19.03 58.2089 19.0024 58.2331 18.9685C58.2573 18.9346 58.2728 18.8956 58.2781 18.8546C58.2834 18.8137 58.2784 18.7721 58.2636 18.7334ZM59.2195 21.79H52.6894C52.6358 21.7898 52.5834 21.8058 52.5394 21.8356C52.4954 21.8655 52.4618 21.9078 52.4433 21.9569L51.1556 25.3414C51.1371 25.3905 51.1035 25.4328 51.0595 25.4627C51.0155 25.4925 50.9631 25.5085 50.9094 25.5083H48.0736C48.0306 25.5086 47.9882 25.4985 47.9501 25.4789C47.9121 25.4594 47.8796 25.431 47.8555 25.3962C47.8314 25.3615 47.8164 25.3215 47.812 25.2798C47.8075 25.2381 47.8136 25.196 47.8299 25.1571L54.3695 9.30076C54.389 9.25337 54.4227 9.21279 54.4662 9.18427C54.5096 9.15575 54.5609 9.14061 54.6133 9.14081H57.329C57.3814 9.14061 57.4326 9.15575 57.4761 9.18427C57.5195 9.21279 57.5532 9.25337 57.5727 9.30076L64.1124 25.1571C64.1286 25.196 64.1348 25.2381 64.1303 25.2798C64.1258 25.3215 64.1109 25.3615 64.0868 25.3962C64.0627 25.431 64.0302 25.4594 63.9921 25.4789C63.9541 25.4985 63.9116 25.5086 63.8686 25.5083H61.0126C60.959 25.5085 60.9066 25.4925 60.8626 25.4627C60.8185 25.4328 60.785 25.3905 60.7665 25.3414L59.4787 21.9569C59.4602 21.9078 59.4267 21.8655 59.3827 21.8356C59.3386 21.8058 59.2863 21.7898 59.2326 21.79H59.2195ZM65.4203 14.7056H67.8459C67.8805 14.7054 67.9147 14.712 67.9467 14.7248C67.9786 14.7376 68.0076 14.7565 68.0321 14.7803C68.0565 14.8041 68.0759 14.8324 68.089 14.8636C68.1022 14.8947 68.1088 14.9281 68.1087 14.9618V25.2545C68.1088 25.2882 68.1022 25.3216 68.089 25.3527C68.0759 25.3838 68.0565 25.4121 68.0321 25.436C68.0076 25.4598 67.9786 25.4786 67.9467 25.4915C67.9147 25.5043 67.8805 25.5108 67.8459 25.5106H65.4203C65.3858 25.5108 65.3515 25.5043 65.3196 25.4915C65.2876 25.4786 65.2586 25.4598 65.2341 25.436C65.2097 25.4121 65.1904 25.3838 65.1772 25.3527C65.1641 25.3216 65.1574 25.2882 65.1575 25.2545V14.9386C65.1574 14.9049 65.1641 14.8715 65.1772 14.8404C65.1904 14.8092 65.2097 14.7809 65.2341 14.7571C65.2586 14.7333 65.2876 14.7144 65.3196 14.7016C65.3515 14.6888 65.3858 14.6823 65.4203 14.6824V14.7056ZM76.9538 17.1861C76.954 17.2197 76.9473 17.2531 76.9342 17.2843C76.921 17.3154 76.9017 17.3437 76.8772 17.3675C76.8528 17.3913 76.8238 17.4102 76.7918 17.423C76.7599 17.4358 76.7256 17.4424 76.6911 17.4422H76.6173C75.4283 17.4422 74.5366 17.7227 73.9777 18.2837C73.4189 18.8447 73.1383 19.772 73.1383 21.0655V25.229C73.1384 25.2627 73.1317 25.2961 73.1186 25.3272C73.1054 25.3583 73.0861 25.3866 73.0616 25.4105C73.0372 25.4343 73.0082 25.4531 72.9762 25.466C72.9443 25.4788 72.91 25.4853 72.8755 25.4851H70.4737C70.4391 25.4853 70.4049 25.4788 70.3729 25.466C70.341 25.4531 70.3119 25.4343 70.2875 25.4105C70.2631 25.3866 70.2437 25.3583 70.2306 25.3272C70.2174 25.2961 70.2107 25.2627 70.2109 25.229V14.9502C70.2107 14.9165 70.2174 14.8831 70.2306 14.852C70.2437 14.8208 70.2631 14.7925 70.2875 14.7687C70.3119 14.7449 70.341 14.726 70.3729 14.7132C70.4049 14.7004 70.4391 14.6939 70.4737 14.694H72.8517C72.8863 14.6939 72.9205 14.7004 72.9525 14.7132C72.9844 14.726 73.0134 14.7449 73.0379 14.7687C73.0623 14.7925 73.0817 14.8208 73.0948 14.852C73.108 14.8831 73.1146 14.9165 73.1145 14.9502V16.9855H73.162C73.4498 16.144 73.9052 15.4973 74.5294 15.0452C75.1537 14.5932 75.9206 14.3671 76.8314 14.3671H76.9503L76.9538 17.1861ZM83.5862 17.091C83.5517 17.0909 83.5174 17.0974 83.4855 17.1102C83.4535 17.123 83.4245 17.1419 83.4001 17.1657C83.3756 17.1895 83.3563 17.2178 83.3431 17.249C83.33 17.2801 83.3233 17.3135 83.3234 17.3472V21.6277C83.3234 22.0647 83.4114 22.3753 83.5874 22.5631C83.7634 22.7509 84.0666 22.8436 84.4982 22.8436H84.7396C84.7741 22.8434 84.8084 22.8499 84.8403 22.8628C84.8723 22.8756 84.9013 22.8944 84.9257 22.9183C84.9502 22.9421 84.9695 22.9704 84.9827 23.0015C84.9958 23.0327 85.0025 23.0661 85.0023 23.0997V25.2661C85.0025 25.2998 84.9958 25.3331 84.9827 25.3643C84.9695 25.3954 84.9502 25.4237 84.9257 25.4476C84.9013 25.4714 84.8723 25.4902 84.8403 25.5031C84.8084 25.5159 84.7741 25.5224 84.7396 25.5222H83.7051C82.635 25.5222 81.8098 25.2533 81.2343 24.7155C80.6588 24.1777 80.3711 23.3791 80.3711 22.3185V17.3599C80.3713 17.3262 80.3646 17.2929 80.3514 17.2617C80.3383 17.2306 80.3189 17.2023 80.2945 17.1784C80.2701 17.1546 80.241 17.1358 80.2091 17.1229C80.1771 17.1101 80.1429 17.1036 80.1083 17.1038H78.5947C78.5601 17.1039 78.5259 17.0974 78.4939 17.0846C78.462 17.0718 78.433 17.0529 78.4085 17.0291C78.3841 17.0053 78.3648 16.977 78.3516 16.9458C78.3385 16.9147 78.3318 16.8813 78.3319 16.8476V14.9502C78.3318 14.9165 78.3385 14.8831 78.3516 14.852C78.3648 14.8208 78.3841 14.7925 78.4085 14.7687C78.433 14.7449 78.462 14.726 78.4939 14.7132C78.5259 14.7004 78.5601 14.6939 78.5947 14.694H80.1083C80.1429 14.6942 80.1771 14.6876 80.2091 14.6748C80.241 14.662 80.2701 14.6431 80.2945 14.6193C80.3189 14.5955 80.3383 14.5672 80.3514 14.5361C80.3646 14.5049 80.3713 14.4715 80.3711 14.4379V10.6129C80.3709 10.5792 80.3776 10.5458 80.3908 10.5146C80.4039 10.4835 80.4233 10.4552 80.4477 10.4314C80.4721 10.4076 80.5012 10.3887 80.5331 10.3759C80.5651 10.3631 80.5993 10.3565 80.6339 10.3567H83.0595C83.094 10.3565 83.1283 10.3631 83.1602 10.3759C83.1922 10.3887 83.2212 10.4076 83.2456 10.4314C83.2701 10.4552 83.2894 10.4835 83.3026 10.5146C83.3157 10.5458 83.3224 10.5792 83.3223 10.6129V14.4379C83.3221 14.4715 83.3288 14.5049 83.3419 14.5361C83.3551 14.5672 83.3744 14.5955 83.3989 14.6193C83.4233 14.6431 83.4523 14.662 83.4843 14.6748C83.5162 14.6876 83.5505 14.6942 83.585 14.694H85.3388C85.3734 14.6939 85.4076 14.7004 85.4396 14.7132C85.4715 14.726 85.5006 14.7449 85.525 14.7687C85.5494 14.7925 85.5688 14.8208 85.5819 14.852C85.5951 14.8831 85.6018 14.9165 85.6016 14.9502V16.8476C85.6018 16.8813 85.5951 16.9147 85.5819 16.9458C85.5688 16.977 85.5494 17.0053 85.525 17.0291C85.5006 17.0529 85.4715 17.0718 85.4396 17.0846C85.4076 17.0974 85.3734 17.1039 85.3388 17.1038L83.5862 17.091ZM94.6917 22.2814C95.2434 21.7204 95.5193 20.9879 95.5193 20.0838C95.5193 19.1797 95.2434 18.4471 94.6917 17.8861C94.14 17.3251 93.4159 17.0446 92.5205 17.0446C91.6252 17.0446 90.9035 17.3251 90.3494 17.8861C89.7953 18.4471 89.5218 19.1797 89.5218 20.0838C89.5218 20.9879 89.7977 21.7204 90.3494 22.2814C90.9011 22.8424 91.624 23.1229 92.5205 23.1229C93.4171 23.1229 94.14 22.8424 94.6917 22.2814ZM89.1033 25.156C88.277 24.6933 87.6062 24.0068 87.1723 23.1797C86.7003 22.315 86.4649 21.2823 86.4649 20.0815C86.4649 18.8806 86.7003 17.8491 87.1723 16.9832C87.6444 16.1174 88.2876 15.4602 89.1033 15.007C89.9217 14.5541 90.8483 14.3202 91.7893 14.3289C92.6525 14.3289 93.3921 14.4912 94.008 14.8204C94.6239 15.1495 95.1138 15.6085 95.4824 16.2113H95.53V14.9502C95.5298 14.9165 95.5365 14.8831 95.5497 14.852C95.5628 14.8208 95.5822 14.7925 95.6066 14.7687C95.631 14.7449 95.6601 14.726 95.692 14.7132C95.724 14.7004 95.7582 14.6939 95.7927 14.694H98.1946C98.2291 14.6939 98.2634 14.7004 98.2953 14.7132C98.3273 14.726 98.3563 14.7449 98.3807 14.7687C98.4052 14.7925 98.4245 14.8208 98.4377 14.852C98.4508 14.8831 98.4575 14.9165 98.4574 14.9502V25.2429C98.4575 25.2766 98.4508 25.31 98.4377 25.3411C98.4245 25.3723 98.4052 25.4006 98.3807 25.4244C98.3563 25.4482 98.3273 25.4671 98.2953 25.4799C98.2634 25.4927 98.2291 25.4992 98.1946 25.4991H95.7927C95.7582 25.4992 95.724 25.4927 95.692 25.4799C95.6601 25.4671 95.631 25.4482 95.6066 25.4244C95.5822 25.4006 95.5628 25.3723 95.5497 25.3411C95.5365 25.31 95.5298 25.2766 95.53 25.2429V23.9679H95.4824C95.1257 24.5474 94.6227 25.0204 94.008 25.3588C93.3933 25.6973 92.6525 25.8503 91.7893 25.8503C90.8143 25.8503 89.919 25.6242 89.1021 25.1722L89.1033 25.156ZM108.445 22.2976C108.997 21.7366 109.273 21.0041 109.273 20.1C109.273 19.1959 108.997 18.4634 108.445 17.9024C107.893 17.3414 107.169 17.0609 106.274 17.0609C105.379 17.0609 104.655 17.3414 104.103 17.9024C103.551 18.4634 103.275 19.1959 103.275 20.1C103.275 21.0041 103.551 21.7366 104.103 22.2976C104.655 22.8586 105.377 23.1391 106.274 23.1391C107.171 23.1391 107.893 22.8586 108.445 22.2976ZM104.8 25.3611C104.189 25.0393 103.679 24.5627 103.324 23.9818H103.276V25.2568C103.277 25.2905 103.27 25.3239 103.257 25.355C103.244 25.3862 103.224 25.4145 103.2 25.4383C103.175 25.4621 103.146 25.481 103.114 25.4938C103.082 25.5066 103.048 25.5131 103.014 25.513H100.588C100.554 25.5131 100.519 25.5066 100.487 25.4938C100.455 25.481 100.426 25.4621 100.402 25.4383C100.377 25.4145 100.358 25.3862 100.345 25.355C100.332 25.3239 100.325 25.2905 100.325 25.2568V9.38653C100.325 9.35285 100.332 9.31947 100.345 9.28832C100.358 9.25718 100.377 9.22888 100.402 9.20506C100.426 9.18124 100.455 9.16238 100.487 9.14956C100.519 9.13674 100.554 9.13022 100.588 9.13037H103.014C103.048 9.13022 103.082 9.13674 103.114 9.14956C103.146 9.16238 103.175 9.18124 103.2 9.20506C103.224 9.22888 103.244 9.25718 103.257 9.28832C103.27 9.31947 103.277 9.35285 103.276 9.38653V16.2252H103.324C103.679 15.6442 104.189 15.1677 104.8 14.8459C105.416 14.5178 106.155 14.3544 107.018 14.3544C107.959 14.3457 108.886 14.5796 109.704 15.0325C110.52 15.4961 111.163 16.1429 111.635 17.0087C112.107 17.8746 112.343 18.9073 112.343 20.107C112.343 21.3066 112.105 22.3405 111.635 23.2052C111.166 24.0699 110.52 24.7294 109.704 25.1815C108.889 25.6335 107.992 25.8595 107.017 25.8595C106.154 25.8595 105.414 25.6973 104.798 25.3681L104.8 25.3611ZM116.427 25.5072H114.001C113.967 25.5073 113.933 25.5008 113.901 25.488C113.869 25.4752 113.84 25.4563 113.815 25.4325C113.791 25.4087 113.772 25.3804 113.758 25.3492C113.745 25.3181 113.739 25.2847 113.739 25.251V9.38653C113.739 9.35285 113.745 9.31947 113.758 9.28832C113.772 9.25718 113.791 9.22888 113.815 9.20506C113.84 9.18124 113.869 9.16238 113.901 9.14956C113.933 9.13674 113.967 9.13022 114.001 9.13037H116.427C116.462 9.13022 116.496 9.13674 116.528 9.14956C116.56 9.16238 116.589 9.18124 116.613 9.20506C116.638 9.22888 116.657 9.25718 116.67 9.28832C116.683 9.31947 116.69 9.35285 116.69 9.38653V25.2661C116.69 25.2998 116.683 25.3331 116.67 25.3643C116.657 25.3954 116.638 25.4237 116.613 25.4476C116.589 25.4714 116.56 25.4902 116.528 25.5031C116.496 25.5159 116.462 25.5224 116.427 25.5222V25.5072ZM122.149 17.2231C121.747 17.5291 121.474 17.9708 121.334 18.548C121.296 18.7068 121.423 18.8609 121.591 18.8609H126.207C126.367 18.8609 126.492 18.7219 126.468 18.5665C126.376 18.0218 126.135 17.5848 125.748 17.2591C125.292 16.8766 124.697 16.6865 123.961 16.6865C123.225 16.6865 122.622 16.8661 122.15 17.2243L122.149 17.2231ZM128.063 15.8798C129.006 16.8859 129.49 18.3081 129.49 20.1452V20.4512C129.49 20.4849 129.483 20.5183 129.47 20.5494C129.457 20.5806 129.438 20.6089 129.413 20.6327C129.389 20.6565 129.36 20.6754 129.328 20.6882C129.296 20.701 129.261 20.7075 129.227 20.7074H121.515C121.352 20.7074 121.227 20.8523 121.256 21.0087C121.379 21.7042 121.689 22.2351 122.186 22.6373C122.753 23.0974 123.47 23.3269 124.332 23.3269C125.447 23.3269 126.478 22.9027 127.427 22.0542C127.454 22.03 127.487 22.0118 127.522 22.0008C127.558 21.9897 127.595 21.9862 127.632 21.9904C127.669 21.9945 127.704 22.0063 127.736 22.0249C127.768 22.0435 127.796 22.0685 127.817 22.0983L128.996 23.7488C129.034 23.8002 129.05 23.8631 129.043 23.9256C129.035 23.9881 129.004 24.0457 128.956 24.0873C128.377 24.5817 127.733 24.9988 127.042 25.3275C126.275 25.6938 125.371 25.8769 124.331 25.8769C123.142 25.8769 122.071 25.6393 121.188 25.1641C120.308 24.7042 119.583 24.0057 119.101 23.1531C118.605 22.2884 118.358 21.2985 118.358 20.1487C118.358 18.9989 118.598 18.0044 119.077 17.1327C119.557 16.2611 120.228 15.5819 121.093 15.0985C121.957 14.6152 122.963 14.3741 124.115 14.3741C125.81 14.3741 127.129 14.8771 128.072 15.8809L128.063 15.8798ZM68.4428 10.92C68.4419 11.383 68.2528 11.8268 67.9169 12.1541C67.5811 12.4815 67.1259 12.6658 66.6509 12.6668C66.176 12.6658 65.7208 12.4815 65.385 12.1541C65.0491 11.8268 64.86 11.383 64.8591 10.92C64.86 10.457 65.0491 10.0133 65.385 9.68589C65.7208 9.35851 66.176 9.17418 66.6509 9.17326C67.1259 9.17418 67.5811 9.35851 67.9169 9.68589C68.2528 10.0133 68.4419 10.457 68.4428 10.92Z" fill="#333333"/>
<path d="M18.7549 1.17553L3.44264 7.35349C2.5913 7.69658 2.61032 8.87653 3.45691 9.20803L18.8334 15.1519C20.1845 15.674 21.689 15.674 23.0401 15.1519L38.4166 9.20803C39.2727 8.87653 39.2822 7.69774 38.4309 7.35349L23.1186 1.17553C21.7215 0.612062 20.152 0.612062 18.7549 1.17553Z" fill="#FFCC00"/>
<path d="M22.3032 18.3961V33.2325C22.3032 33.928 23.0333 34.4229 23.7063 34.1621L40.8282 27.6793C41.0196 27.6059 41.1838 27.4779 41.2994 27.312C41.4151 27.1462 41.4767 26.9502 41.4762 26.7497V11.9133C41.4762 11.2179 40.7462 10.723 40.0732 10.9837L22.9512 17.4665C22.7599 17.54 22.5956 17.668 22.48 17.8338C22.3644 17.9997 22.3028 18.1956 22.3032 18.3961Z" fill="#31C2F2"/>
<path d="M18.3029 19.1623L12.7145 21.7992L1.97996 26.8135C1.29984 27.1334 0.430664 26.6512 0.430664 25.9129V11.976C0.430664 11.7094 0.570969 11.4775 0.758835 11.306C0.835723 11.2312 0.922971 11.1672 1.01804 11.1159C1.15856 11.0375 1.31517 10.9905 1.47658 10.9783C1.63799 10.9661 1.80017 10.9889 1.95143 11.0452L18.2411 17.3321C19.0686 17.652 19.1328 18.781 18.3267 19.1635" fill="#ED3049"/>
<path d="M18.3033 19.1623L13.2167 21.557L0.731934 11.306C0.808822 11.2312 0.89607 11.1672 0.991141 11.1159C1.13166 11.0375 1.28827 10.9905 1.44968 10.9783C1.61109 10.9661 1.77327 10.9889 1.92453 11.0452L18.2142 17.3321C19.0417 17.652 19.1059 18.781 18.2998 19.1635" fill="#C62842"/>
</g>
<defs>
<clipPath id="clip0">
<rect width="130" height="34" fill="white" transform="translate(0 0.5)"/>
</clipPath>
</defs>
</svg>
