<svg width="166" height="31" viewBox="0 0 166 31" fill="none" xmlns="http://www.w3.org/2000/svg">
<path d="M22.1774 25.1014C22.4438 23.5744 21.8843 21.9956 20.6853 20.9603C19.8327 20.1838 18.687 19.7438 17.5146 19.7438C16.8219 19.7438 16.1558 19.5885 15.5429 19.278C14.7436 18.8639 14.1042 18.2168 13.6778 17.4404C13.9176 16.8451 14.0242 16.198 14.0242 15.4992C14.0242 17.3886 15.5696 18.9156 17.488 18.9156H17.5679C19.4597 18.8897 20.9784 17.3627 20.9784 15.4992C20.9784 14.8263 21.1116 14.1792 21.3248 13.5581C21.6978 12.6004 22.3372 11.7463 23.1899 11.1252C24.229 10.3487 25.5079 9.98636 26.7868 10.0381C25.8809 8.53698 24.602 7.26877 23.0566 6.3629C23.0566 6.44055 23.0566 6.54408 23.0566 6.62172C23.0566 7.81229 22.657 8.95109 21.9376 9.90872C21.7244 9.72754 21.4846 9.57226 21.2448 9.44285C21.8843 8.64051 22.204 7.65699 22.204 6.6476C22.204 6.05231 22.0974 5.45703 21.8576 4.88763C21.1649 3.23119 19.5396 2.0665 17.6212 2.01474H17.488H17.3548C16.1824 2.01474 15.0367 2.17004 13.9176 2.48062C9.2016 3.72295 5.49804 7.37229 4.24576 12.0052C3.44643 12.9628 2.96683 14.1275 2.94019 15.3698C3.02012 7.57935 9.41475 1.26417 17.3548 1.18652H17.5146C17.5946 1.18652 17.6478 1.18652 17.7278 1.18652C25.6145 1.31593 31.9825 7.57935 32.0624 15.3698C32.0624 15.4216 32.0624 15.4733 32.0624 15.5251C32.0624 15.5769 32.0624 15.6286 32.0624 15.6804C32.0358 16.9227 31.5828 18.0874 30.7568 19.045C30.0108 19.925 28.9717 20.5721 27.826 20.8309C27.3997 20.9344 26.9467 20.9862 26.5204 20.9862C25.3214 20.9862 24.1491 20.5979 23.1899 19.8991C22.8435 20.365 22.4172 20.7532 21.9642 21.1156C22.7369 22.125 23.1366 23.3932 23.0566 24.6614C24.602 23.7555 25.8809 22.4873 26.7868 20.9862C27.1332 20.9603 27.4796 20.9085 27.826 20.8309C26.7336 22.9014 25.0017 24.5837 22.8968 25.6708C21.2448 26.5249 19.3797 26.9649 17.5146 26.9649C16.6887 26.9649 15.916 26.5767 15.4364 25.9555C15.09 25.4896 14.9035 24.9461 14.9035 24.3767C14.9035 23.6002 15.2765 22.8756 15.836 22.4097C16.3689 22.5391 16.9551 22.6167 17.5413 22.6167C16.5554 22.6167 15.7295 23.4191 15.7295 24.4026C15.7295 25.3861 16.5288 26.1884 17.5413 26.1884H17.5679C18.5538 26.1884 19.3797 25.3861 19.3797 24.4026C19.3797 23.4191 18.5804 22.6167 17.5679 22.6167C16.2357 22.6167 14.9568 22.2544 13.8111 21.5815C13.5713 21.4262 13.3315 21.2709 13.1183 21.1156C12.6387 20.7532 12.239 20.3391 11.866 19.8991C12.0792 19.7438 12.2923 19.5627 12.5055 19.3556C13.0117 20.0027 13.6512 20.5721 14.3972 20.9862C15.3564 21.5297 16.4489 21.8144 17.5679 21.8144C18.2074 21.8144 18.8202 22.0473 19.2731 22.4356C19.8327 22.9014 20.2057 23.6261 20.2057 24.4026C20.2057 24.972 20.0192 25.5155 19.6728 25.9814C20.5521 25.8002 21.4047 25.5414 22.204 25.1532L22.1774 25.1014ZM28.1191 13.4545C27.9592 12.5746 27.6661 11.7463 27.2664 10.944C25.9875 10.7369 24.6819 11.0734 23.6695 11.824C22.4971 12.704 21.8044 14.0757 21.8044 15.5251C21.8044 16.2239 21.6445 16.871 21.3248 17.4662C20.9251 18.2427 20.259 18.8897 19.4863 19.3039C20.2057 19.5627 20.8452 19.9768 21.4047 20.4944C22.0708 20.0027 22.6303 19.3556 23.03 18.6568C23.5895 17.6992 23.8826 16.638 23.8826 15.5251C23.8826 14.878 24.1224 14.3086 24.5221 13.8428C25.0283 13.2734 25.7477 12.9369 26.5204 12.9369C27.1066 12.9369 27.6661 13.1181 28.1191 13.4545ZM28.3056 15.4474C28.2789 14.5157 27.4796 13.7651 26.4938 13.7392C25.4813 13.7392 24.6819 14.5416 24.6819 15.4992C24.6819 15.5251 24.6819 15.551 24.6819 15.551C24.7086 16.5086 25.5079 17.2592 26.4938 17.2592C27.5062 17.2592 28.3056 16.4568 28.3056 15.4992C28.3056 15.4992 28.3056 15.4733 28.3056 15.4474ZM24.5221 17.2074C24.3356 17.9062 24.0691 18.605 23.6695 19.2262C24.6819 20.0027 25.9875 20.3132 27.2664 20.1062C27.6128 20.0544 27.9592 19.9509 28.3056 19.8215C30.0375 19.1227 31.1832 17.4921 31.2364 15.6545V15.4216C31.2364 14.2828 31.0766 13.144 30.7568 12.031C29.5046 7.42406 25.801 3.77471 21.1116 2.50649C22.0175 3.25707 22.6303 4.26646 22.9234 5.37939V5.40527C25.3747 6.67348 27.2664 8.74404 28.3056 11.2546C28.8651 12.5746 29.1582 14.0239 29.1582 15.551C29.1582 16.3792 28.7585 17.1298 28.1191 17.5956C27.6661 17.9321 27.1066 18.1392 26.5204 18.1392C25.7211 18.1133 25.0017 17.7509 24.5221 17.2074ZM17.3015 29.8378C9.41475 29.7084 3.04676 23.4191 2.96683 15.6545V15.4992V15.3439C2.99347 14.1016 3.44643 12.9369 4.2724 11.9793C5.01844 11.0993 6.05757 10.4781 7.20327 10.1934C7.62958 10.0899 8.08254 10.0381 8.50885 10.0381C9.70784 10.0381 10.8802 10.4264 11.8394 11.1252C12.1858 10.6593 12.6121 10.2711 13.065 9.90872C12.2923 8.89932 11.8927 7.63112 11.946 6.3629C10.4006 7.26877 9.12167 8.53698 8.21576 10.0381C7.86938 10.064 7.52301 10.1158 7.17663 10.1934C8.26905 8.12287 10.0009 6.44054 12.1058 5.3535C13.7578 4.4994 15.6229 4.05941 17.488 4.05941C18.314 4.05941 19.0866 4.44764 19.5662 5.06881C19.9126 5.5088 20.0991 6.05231 20.0991 6.6476C20.0991 7.44994 19.7261 8.14875 19.1666 8.61462C18.607 8.48521 18.0475 8.40757 17.4613 8.40757C18.4472 8.40757 19.2731 7.60523 19.2731 6.62172C19.2731 5.63821 18.4738 4.83586 17.4613 4.83586H17.4347C16.4489 4.83586 15.6229 5.63821 15.6229 6.62172C15.6229 7.60523 16.4222 8.40757 17.4347 8.40757C18.7669 8.40757 20.0458 8.76992 21.1915 9.44285C21.4313 9.59814 21.6711 9.75343 21.8843 9.90872C22.3372 10.2711 22.7636 10.6852 23.1366 11.1252C22.9234 11.2805 22.7103 11.4616 22.4971 11.6687C21.9909 11.0216 21.3514 10.4522 20.6054 10.0381C19.6462 9.49461 18.5538 9.20991 17.4347 9.20991C16.8219 9.20991 16.2091 8.97697 15.7295 8.58874C15.1433 8.09698 14.7969 7.3723 14.7969 6.62172C14.7969 6.02644 15.0101 5.48292 15.3298 5.04292C14.4505 5.2241 13.5713 5.50879 12.7719 5.87114C12.5055 7.39817 13.065 8.97697 14.264 10.0122C15.1166 10.7887 16.2623 11.2287 17.4347 11.2287C18.1274 11.2287 18.7936 11.384 19.4064 11.6946C20.2057 12.1087 20.8452 12.7557 21.2715 13.5322C21.0317 14.1533 20.8985 14.8004 20.9251 15.4733C20.9251 13.5839 19.3797 12.0569 17.4613 12.0569H17.4347C15.5429 12.0828 14.0242 13.6098 14.0242 15.4733C14.0242 16.1463 13.891 16.7933 13.6778 17.4145C13.3048 18.3721 12.6654 19.2262 11.8127 19.8474C10.7736 20.6238 9.49469 20.9862 8.21576 20.9344C9.12167 22.4356 10.4006 23.7038 11.946 24.6096C11.8927 23.3414 12.2657 22.0991 13.0384 21.0897C13.2515 21.2709 13.4913 21.4262 13.7311 21.5556C13.0917 22.3579 12.7719 23.3414 12.7719 24.3508C12.7719 24.9461 12.8785 25.5414 13.1183 26.1108C13.8111 27.7672 15.4364 28.9319 17.3548 28.9837H17.5946C18.7669 28.9837 19.9126 28.8284 21.0317 28.5178C25.7477 27.2755 29.4513 23.6261 30.7036 18.9933C31.5029 18.0356 31.9825 16.8709 32.0091 15.6286C31.9292 23.4191 25.5346 29.7342 17.5946 29.8119H17.4347H17.2748C17.3548 29.8378 17.3015 29.8378 17.3015 29.8378ZM13.9176 28.5437C13.0117 27.7931 12.3989 26.7837 12.1058 25.6708C12.1058 25.6708 12.1058 25.6708 12.1058 25.6449C9.65455 24.3767 7.76281 22.3061 6.72368 19.7956C6.16415 18.4239 5.87106 16.9745 5.87106 15.4992C5.87106 14.671 6.27072 13.9204 6.91019 13.4545C7.36314 13.1181 7.89603 12.911 8.50885 12.911C9.30818 12.911 10.0276 13.2734 10.5072 13.8169C10.6937 13.0922 10.9601 12.4193 11.3598 11.7981C10.3473 11.0216 9.04173 10.7111 7.76281 10.9181C7.38979 10.9699 7.07005 11.0734 6.72368 11.2028C4.9918 11.9016 3.84609 13.5322 3.7928 15.3698C3.7928 15.4216 3.7928 15.4474 3.7928 15.4992V15.6286C3.7928 16.7674 3.95267 17.9062 4.2724 19.0191C5.55133 23.652 9.22824 27.3014 13.9176 28.5437ZM7.76281 20.1062C9.04173 20.3132 10.3473 19.9768 11.3598 19.2262C12.5321 18.3462 13.2249 16.9745 13.2249 15.5251C13.2249 14.8263 13.3848 14.1792 13.7045 13.584C14.1042 12.8075 14.7703 12.1604 15.5429 11.7463H15.5163C14.7969 11.4875 14.1574 11.0734 13.5979 10.5558C12.9318 11.0475 12.3723 11.6946 11.9726 12.3934C11.4131 13.351 11.12 14.4122 11.12 15.5251C11.12 16.1721 10.8802 16.7415 10.4805 17.2074C9.97428 17.7768 9.25489 18.1133 8.4822 18.1133C7.86938 18.1133 7.3365 17.9062 6.88354 17.5698C7.0967 18.4497 7.38979 19.3038 7.76281 20.1062ZM6.72368 15.6027C6.77697 16.5345 7.54965 17.3109 8.53549 17.3109C9.54797 17.3109 10.3473 16.5086 10.3473 15.551C10.3473 15.5251 10.3473 15.4992 10.3473 15.4992C10.3207 14.5416 9.52133 13.791 8.53549 13.791C7.52301 13.791 6.72368 14.5933 6.72368 15.5769C6.72368 15.551 6.72368 15.5769 6.72368 15.6027ZM43.7593 8.01934H47.7559L51.4861 17.9062H51.5394L55.2163 8.01934H59.213V21.9438H56.6818V10.7628H56.6551L52.3121 21.9438H50.5269L46.2372 10.7628H46.2105V21.9438H43.7859L43.7593 8.01934ZM66.1938 8.01934H75.6792V10.1934H68.7516V13.7392H75.3328V15.8098H68.725V19.7438H76.0255V21.9438H66.1671L66.1938 8.01934ZM86.9763 14.0239C87.3494 14.0239 87.6957 13.9981 88.0688 13.9463C88.4151 13.8945 88.7349 13.791 89.0546 13.6616C89.3477 13.5063 89.5875 13.2992 89.774 13.0404C89.9605 12.7816 90.0671 12.4193 90.0671 12.0052C90.0671 11.6169 89.9871 11.3063 89.8006 11.0734C89.6141 10.8405 89.401 10.6334 89.1345 10.504C88.8414 10.3487 88.5484 10.2452 88.202 10.2193C87.8822 10.1675 87.5359 10.1417 87.1895 10.1417H84.8714V14.0498C84.8981 14.0239 86.9763 14.0239 86.9763 14.0239ZM82.3402 8.01934H87.3227C87.9888 8.01934 88.6549 8.09698 89.2944 8.22639C89.9072 8.3558 90.4667 8.58874 90.973 8.89932C91.4526 9.20991 91.8789 9.6499 92.1453 10.1417C92.4384 10.6593 92.5983 11.2805 92.5983 12.0052C92.5983 13.0145 92.3052 13.8428 91.719 14.4639C91.1329 15.111 90.3335 15.5251 89.321 15.758L93.1312 21.9179H90.0671L86.7632 16.0168H84.8981V21.9179H82.3402V8.01934ZM109.224 11.2805C108.851 10.7887 108.345 10.4005 107.759 10.1934C107.199 9.96048 106.587 9.85696 105.974 9.85696C105.281 9.85696 104.588 9.98637 103.949 10.2452C103.363 10.504 102.83 10.8663 102.377 11.3322C101.924 11.7981 101.577 12.3416 101.364 12.9369C101.124 13.584 100.991 14.2569 101.018 14.9298C101.018 15.6804 101.124 16.3792 101.364 17.0004C101.604 17.6215 101.924 18.165 102.35 18.6309C102.776 19.0709 103.283 19.4333 103.869 19.6921C104.455 19.9509 105.121 20.0544 105.867 20.0544C106.64 20.0544 107.306 19.8991 107.919 19.6144C108.478 19.3297 108.985 18.9415 109.358 18.4497L111.409 19.8474C110.796 20.6238 109.997 21.2191 109.091 21.6332C108.185 22.0473 107.093 22.2803 105.867 22.2803C104.748 22.2803 103.709 22.0991 102.776 21.7367C101.871 21.4003 101.045 20.8826 100.352 20.2356C99.659 19.5627 99.1261 18.7862 98.7798 17.9062C98.4067 17.0004 98.2202 16.0168 98.2202 14.9298C98.2202 13.8169 98.4067 12.8075 98.8064 11.9016C99.2061 10.9958 99.739 10.2452 100.432 9.62401C101.151 8.97697 101.977 8.48522 102.883 8.17464C104.322 7.657 105.894 7.52759 107.386 7.78641C107.892 7.86405 108.372 7.99346 108.825 8.17464C109.278 8.35581 109.704 8.56286 110.13 8.82168C110.53 9.0805 110.876 9.39108 111.169 9.75342C111.169 9.80519 109.224 11.2805 109.224 11.2805ZM128.195 16.8192C128.195 17.6474 128.035 18.4239 127.742 19.0968C127.476 19.7438 127.049 20.3391 126.516 20.805C125.984 21.2709 125.371 21.6591 124.705 21.892C123.985 22.1509 123.186 22.2803 122.413 22.2803C121.641 22.2803 120.868 22.1509 120.122 21.892C119.456 21.6591 118.816 21.2709 118.283 20.805C117.751 20.3132 117.351 19.7438 117.058 19.0968C116.765 18.4239 116.631 17.6733 116.631 16.8192V8.01934H119.189V16.7157C119.189 17.1298 119.243 17.518 119.349 17.9321C119.456 18.3203 119.642 18.6827 119.882 18.9933C120.122 19.3038 120.468 19.5627 120.868 19.7697C121.268 19.9768 121.8 20.0544 122.387 20.0544C122.999 20.0544 123.506 19.9509 123.905 19.7697C124.305 19.5885 124.625 19.3297 124.891 18.9933C125.131 18.6827 125.317 18.3203 125.424 17.9321C125.531 17.5439 125.584 17.1298 125.584 16.7157V8.01934H128.142C128.195 8.01934 128.195 16.8192 128.195 16.8192ZM139.679 14.0239C140.052 14.0239 140.398 13.9981 140.771 13.9463C141.144 13.8945 141.464 13.791 141.757 13.6616C142.05 13.5063 142.29 13.2992 142.476 13.0404C142.663 12.7816 142.77 12.4193 142.77 12.0052C142.77 11.6169 142.69 11.3063 142.503 11.0734C142.343 10.8405 142.103 10.6334 141.837 10.504C141.544 10.3487 141.251 10.2452 140.904 10.2193C140.585 10.1675 140.238 10.1417 139.892 10.1417H137.574V14.0498C137.601 14.0239 139.679 14.0239 139.679 14.0239ZM135.043 8.01934H140.025C140.691 8.01934 141.357 8.09698 141.997 8.22639C142.61 8.3558 143.169 8.58874 143.675 8.89932C144.155 9.20991 144.555 9.62401 144.848 10.1417C145.141 10.6593 145.301 11.2805 145.301 12.0052C145.301 13.0145 145.008 13.8428 144.421 14.4639C143.835 15.111 143.036 15.5251 142.023 15.758L145.834 21.9179H142.77L139.466 16.0168H137.601V21.9179H135.043C135.043 21.9438 135.043 8.01934 135.043 8.01934ZM154.919 15.9133L149.537 8.04523H152.655L156.252 13.8945L159.902 8.04523H162.859L157.477 15.9133V21.9438H154.919V15.9133Z" fill="#1F1F30"/>
</svg>
