<svg width="124" height="37" viewBox="0 0 124 37" fill="none" xmlns="http://www.w3.org/2000/svg">
<g clip-path="url(#clip0)">
<path d="M26.6298 7.88765C26.6101 7.7111 26.4526 7.63264 26.3345 7.63264C26.2164 7.63264 23.6374 7.43647 23.6374 7.43647C23.6374 7.43647 21.846 5.65138 21.6294 5.47483C21.4326 5.27867 21.0585 5.33752 20.901 5.37675C20.8813 5.37675 20.5073 5.49445 19.897 5.69061C19.2867 3.94475 18.2433 2.35582 16.3731 2.35582H16.196C15.6841 1.68886 15.0148 1.375 14.4636 1.375C10.1325 1.375 8.04577 6.76952 7.39612 9.51582C5.70308 10.0455 4.50221 10.3986 4.3644 10.4574C3.41946 10.7516 3.39977 10.7713 3.28165 11.654C3.18322 12.321 0.722412 31.29 0.722412 31.29L19.8773 34.8602L30.2718 32.624C30.2915 32.5847 26.6495 8.0642 26.6298 7.88765ZM18.8339 5.96524C18.3615 6.10256 17.7906 6.27911 17.2197 6.47527V6.12217C17.2197 5.06289 17.0818 4.19976 16.8259 3.51319C17.8102 3.63089 18.4205 4.70979 18.8339 5.96524ZM15.6251 3.72897C15.881 4.39593 16.0582 5.33752 16.0582 6.6322V6.82837C14.9951 7.16184 13.873 7.49532 12.7115 7.86804C13.3611 5.39637 14.6014 4.18015 15.6251 3.72897ZM14.3651 2.51275C14.562 2.51275 14.7588 2.59122 14.9163 2.70892C13.5186 3.35626 12.0421 4.98442 11.4318 8.27998C10.5066 8.57423 9.62069 8.82924 8.77417 9.10387C9.48288 6.59297 11.2547 2.51275 14.3651 2.51275Z" fill="#95BF47"/>
<path d="M26.3346 7.59338C26.2165 7.59338 23.6376 7.39721 23.6376 7.39721C23.6376 7.39721 21.8461 5.61212 21.6296 5.43557C21.5508 5.3571 21.4524 5.31787 21.3736 5.31787L19.9365 34.8602L30.3309 32.624C30.3309 32.624 26.689 8.06417 26.6693 7.88763C26.5905 7.71108 26.4527 7.63261 26.3346 7.59338Z" fill="#5E8E3E"/>
<path d="M16.3743 13.3215L15.1143 17.1075C15.1143 17.1075 13.9725 16.4994 12.6141 16.4994C10.5864 16.4994 10.488 17.7745 10.488 18.0883C10.488 19.8146 15.0159 20.4816 15.0159 24.5422C15.0159 27.7397 12.9882 29.7994 10.2518 29.7994C6.94444 29.7994 5.29077 27.7593 5.29077 27.7593L6.17666 24.856C6.17666 24.856 7.90907 26.3469 9.36587 26.3469C10.3305 26.3469 10.7242 25.6015 10.7242 25.0522C10.7242 22.7963 7.02318 22.6982 7.02318 18.9711C7.02318 15.8521 9.26744 12.8311 13.815 12.8311C15.5081 12.8115 16.3743 13.3215 16.3743 13.3215Z" fill="white"/>
<path d="M42.3993 20.4415C41.3559 19.8923 40.8244 19.4019 40.8244 18.7545C40.8244 17.9306 41.5724 17.401 42.7339 17.401C44.0923 17.401 45.2932 17.9502 45.2932 17.9502L46.2381 15.0666C46.2381 15.0666 45.3719 14.3997 42.8127 14.3997C39.2494 14.3997 36.7689 16.4398 36.7689 19.3038C36.7689 20.9319 37.9304 22.1678 39.466 23.0505C40.7259 23.7371 41.159 24.2471 41.159 24.9925C41.159 25.7576 40.5291 26.3853 39.3676 26.3853C37.6548 26.3853 36.0209 25.5026 36.0209 25.5026L35.0168 28.3862C35.0168 28.3862 36.513 29.3866 39.0329 29.3866C42.6946 29.3866 45.3522 27.5819 45.3522 24.3452C45.3129 22.5797 43.9939 21.3635 42.3993 20.4415ZM57.0066 14.3604C55.1955 14.3604 53.7781 15.2236 52.6953 16.5182L52.6559 16.4986L54.2308 8.33819H50.1557L46.1791 29.1316H50.2542L51.6125 22.0305C52.1441 19.343 53.5418 17.6756 54.8411 17.6756C55.7664 17.6756 56.1207 18.3033 56.1207 19.1861C56.1207 19.7353 56.0814 20.4415 55.9436 20.9908L54.408 29.1316H58.4831L60.0777 20.7358C60.2549 19.853 60.373 18.7937 60.373 18.0679C60.3533 15.7336 59.1525 14.3604 57.0066 14.3604ZM69.5863 14.3604C64.6647 14.3604 61.4164 18.7741 61.4164 23.6979C61.4164 26.8365 63.3654 29.3866 67.0271 29.3866C71.8502 29.3866 75.0985 25.0906 75.0985 20.0492C75.1182 17.1263 73.4252 14.3604 69.5863 14.3604ZM67.5783 26.2872C66.1805 26.2872 65.6096 25.1102 65.6096 23.6194C65.6096 21.285 66.8105 17.4991 69.0351 17.4991C70.4722 17.4991 70.9643 18.7545 70.9643 19.9511C70.9643 22.4424 69.7241 26.2872 67.5783 26.2872ZM85.552 14.3604C82.7959 14.3604 81.2407 16.7929 81.2407 16.7929H81.2013L81.4376 14.6154H77.8152C77.6381 16.0867 77.3034 18.3426 76.9884 20.01L74.1732 34.8988H78.2483L79.3902 28.8766H79.4886C79.4886 28.8766 80.3351 29.4062 81.8707 29.4062C86.6742 29.4062 89.8043 24.5021 89.8043 19.5588C89.7846 16.8125 88.5444 14.3604 85.552 14.3604ZM81.6541 26.3265C80.591 26.3265 79.9611 25.7183 79.9611 25.7183L80.6304 21.9324C81.1029 19.3822 82.4416 17.7148 83.859 17.7148C85.1189 17.7148 85.493 18.8722 85.493 19.9511C85.5127 22.5797 83.9377 26.3265 81.6541 26.3265ZM95.6118 8.53436C94.3125 8.53436 93.2691 9.57403 93.2691 10.8883C93.2691 12.0849 94.0369 12.9284 95.1984 12.9284H95.2378C96.5174 12.9284 97.6001 12.0653 97.6198 10.5745C97.6395 9.37786 96.8324 8.53436 95.6118 8.53436ZM89.9027 29.112H93.9778L96.7339 14.6743H92.6392L89.9027 29.112ZM107.128 14.6547H104.294L104.431 13.9877C104.668 12.595 105.494 11.3787 106.872 11.3787C107.601 11.3787 108.172 11.5945 108.172 11.5945L108.959 8.39704C108.959 8.39704 108.27 8.04395 106.735 8.04395C105.298 8.04395 103.841 8.45589 102.738 9.39748C101.341 10.5745 100.691 12.2811 100.376 14.0073L100.258 14.6743H98.3482L97.7379 17.7541H99.6475L97.482 29.1316H101.557L103.723 17.7541H106.538L107.128 14.6547ZM116.952 14.6743C116.952 14.6743 114.393 21.0889 113.271 24.6002H113.231C113.152 23.4625 112.227 14.6743 112.227 14.6743H107.936L110.396 27.8958C110.436 28.19 110.416 28.3666 110.298 28.5627C109.825 29.4847 109.018 30.3674 108.073 31.0148C107.306 31.564 106.439 31.9368 105.75 32.1721L106.892 35.6246C107.719 35.4481 109.451 34.7615 110.889 33.408C112.739 31.6817 114.471 28.9943 116.243 25.3456L121.224 14.6547H116.952V14.6743Z" fill="black"/>
</g>
<defs>
<clipPath id="clip0">
<rect width="123" height="37" fill="white" transform="translate(0.5)"/>
</clipPath>
</defs>
</svg>
